<?xml version="1.0" standalone="no"?>
<!DOCTYPE svg PUBLIC "-//W3C//DTD SVG 20010904//EN"
 "http://www.w3.org/TR/2001/REC-SVG-20010904/DTD/svg10.dtd">
<svg version="1.0" xmlns="http://www.w3.org/2000/svg"
 width="320.000000pt" height="320.000000pt" viewBox="0 0 320.000000 320.000000"
 preserveAspectRatio="xMidYMid meet">
<metadata>
Created by potrace 1.14, written by Peter Selinger 2001-2017
</metadata>
<g transform="translate(0.000000,320.000000) scale(0.100000,-0.100000)"
fill="#000000" stroke="none">
<path d="M0 1600 l0 -1600 1600 0 1600 0 0 1600 0 1600 -1600 0 -1600 0 0
-1600z m1497 228 c-3 -322 -8 -487 -16 -517 -33 -122 -104 -210 -209 -259 -52
-25 -68 -27 -182 -27 -143 0 -198 15 -277 75 -43 32 -123 125 -123 142 0 8
190 152 194 146 52 -85 114 -122 193 -116 57 5 84 22 112 73 14 26 16 85 19
493 l3 462 145 0 145 0 -4 -472z m900 0 c-3 -322 -8 -487 -16 -517 -33 -122
-104 -210 -209 -259 -53 -25 -67 -27 -187 -27 -121 0 -134 2 -190 28 -32 15
-74 39 -92 53 -31 23 -113 123 -113 137 0 7 191 150 194 145 44 -60 66 -83 99
-99 96 -50 193 -9 216 91 6 27 11 218 11 483 l0 437 146 0 145 0 -4 -472z"/>
</g>
</svg>
